# xmcd CD database file
#
# Track frame offsets:
#	150
#	27094
#	57602
#	79155
#	98492
#	122103
#	139273
#	159313
#	177942
#	198076
#
# Disc length: 2980 seconds
#
# Revision: 0
# Processed by: cddbd v1.5.1PL2 Copyright (c) Steve Scherf et al.
# Submitted via: CDex 1.51
#
DISCID=7d0ba20a
DTITLE=Jean-Philippe Muvien - Vive les Jongleurs
DYEAR=2003
DGENRE=Jazz
TTITLE0=Jean-Robert
TTITLE1=Saint Thomas
TTITLE2=Giant Steps
TTITLE3=Rimecilse
TTITLE4=Cottontail
TTITLE5=Ocque-Ocque
TTITLE6=Vive les Jongleurs
TTITLE7=Ofzohobor II
TTITLE8=Le Puiné
TTITLE9=Well you Need'nt
EXTD=YEAR: 2003
EXTT0=
EXTT1=
EXTT2=
EXTT3=
EXTT4=
EXTT5=
EXTT6=
EXTT7=
EXTT8=
EXTT9=
PLAYORDER=
